<mxfile host="app.diagrams.net" modified="2021-12-11T06:23:18.627Z" agent="5.0 (Windows NT 10.0; Win64; x64) AppleWebKit/537.36 (KHTML, like Gecko) Chrome/96.0.4664.55 Safari/537.36 Edg/96.0.1054.43" etag="wCcEtP7K0oYEGNOWr3vv" version="15.9.4" type="github">
  <diagram id="0WlvMbETFTRI-HPRhYiD" name="Page-1">
    <mxGraphModel dx="1769" dy="621" grid="1" gridSize="10" guides="1" tooltips="1" connect="1" arrows="1" fold="1" page="1" pageScale="1" pageWidth="827" pageHeight="1169" math="0" shadow="0">
      <root>
        <mxCell id="0" />
        <mxCell id="1" parent="0" />
        <mxCell id="SmQ9b6Evit55e1KI1vsO-1" value="华鼎云仓网部署架构图" style="text;html=1;align=center;verticalAlign=middle;resizable=0;points=[];autosize=1;strokeColor=none;fillColor=none;fontStyle=1;fontSize=20;" vertex="1" parent="1">
          <mxGeometry x="304" y="20" width="220" height="30" as="geometry" />
        </mxCell>
        <mxCell id="SmQ9b6Evit55e1KI1vsO-3" value="" style="rounded=1;whiteSpace=wrap;html=1;fontSize=20;labelBackgroundColor=none;fillColor=#f5f5f5;fontColor=#333333;strokeColor=#666666;" vertex="1" parent="1">
          <mxGeometry x="59" y="230" width="710" height="250" as="geometry" />
        </mxCell>
        <mxCell id="SmQ9b6Evit55e1KI1vsO-24" style="edgeStyle=orthogonalEdgeStyle;curved=1;rounded=0;orthogonalLoop=1;jettySize=auto;html=1;exitX=0.5;exitY=1;exitDx=0;exitDy=0;fontSize=16;" edge="1" parent="1" source="SmQ9b6Evit55e1KI1vsO-4" target="SmQ9b6Evit55e1KI1vsO-3">
          <mxGeometry relative="1" as="geometry">
            <Array as="points">
              <mxPoint x="190" y="380" />
              <mxPoint x="190" y="380" />
            </Array>
          </mxGeometry>
        </mxCell>
        <mxCell id="SmQ9b6Evit55e1KI1vsO-27" style="edgeStyle=orthogonalEdgeStyle;curved=1;rounded=0;orthogonalLoop=1;jettySize=auto;html=1;fontSize=16;exitX=0.5;exitY=1;exitDx=0;exitDy=0;" edge="1" parent="1" source="SmQ9b6Evit55e1KI1vsO-4" target="SmQ9b6Evit55e1KI1vsO-21">
          <mxGeometry relative="1" as="geometry" />
        </mxCell>
        <mxCell id="SmQ9b6Evit55e1KI1vsO-28" style="edgeStyle=orthogonalEdgeStyle;curved=1;rounded=0;orthogonalLoop=1;jettySize=auto;html=1;exitX=0.5;exitY=1;exitDx=0;exitDy=0;entryX=0.5;entryY=0;entryDx=0;entryDy=0;fontSize=16;" edge="1" parent="1" source="SmQ9b6Evit55e1KI1vsO-4" target="SmQ9b6Evit55e1KI1vsO-22">
          <mxGeometry relative="1" as="geometry" />
        </mxCell>
        <mxCell id="SmQ9b6Evit55e1KI1vsO-4" value="" style="rounded=0;whiteSpace=wrap;html=1;labelBackgroundColor=none;fontSize=20;fillColor=#dae8fc;strokeColor=#6c8ebf;" vertex="1" parent="1">
          <mxGeometry x="190" y="255" width="120" height="60" as="geometry" />
        </mxCell>
        <mxCell id="SmQ9b6Evit55e1KI1vsO-13" style="edgeStyle=orthogonalEdgeStyle;rounded=0;orthogonalLoop=1;jettySize=auto;html=1;entryX=0.163;entryY=-0.002;entryDx=0;entryDy=0;entryPerimeter=0;fontSize=16;" edge="1" parent="1" source="SmQ9b6Evit55e1KI1vsO-5" target="SmQ9b6Evit55e1KI1vsO-3">
          <mxGeometry relative="1" as="geometry" />
        </mxCell>
        <mxCell id="SmQ9b6Evit55e1KI1vsO-5" value="Android" style="ellipse;whiteSpace=wrap;html=1;labelBackgroundColor=none;fontSize=16;fillColor=#f8cecc;strokeColor=#b85450;" vertex="1" parent="1">
          <mxGeometry x="130" y="130" width="90" height="50" as="geometry" />
        </mxCell>
        <mxCell id="SmQ9b6Evit55e1KI1vsO-14" style="edgeStyle=orthogonalEdgeStyle;rounded=0;orthogonalLoop=1;jettySize=auto;html=1;entryX=0.5;entryY=0;entryDx=0;entryDy=0;fontSize=16;" edge="1" parent="1" source="SmQ9b6Evit55e1KI1vsO-6" target="SmQ9b6Evit55e1KI1vsO-3">
          <mxGeometry relative="1" as="geometry" />
        </mxCell>
        <mxCell id="SmQ9b6Evit55e1KI1vsO-6" value="IOS" style="ellipse;whiteSpace=wrap;html=1;labelBackgroundColor=none;fontSize=16;fillColor=#f8cecc;strokeColor=#b85450;" vertex="1" parent="1">
          <mxGeometry x="369" y="130" width="90" height="50" as="geometry" />
        </mxCell>
        <mxCell id="SmQ9b6Evit55e1KI1vsO-17" style="edgeStyle=orthogonalEdgeStyle;rounded=0;orthogonalLoop=1;jettySize=auto;html=1;entryX=0.839;entryY=-0.004;entryDx=0;entryDy=0;entryPerimeter=0;fontSize=16;" edge="1" parent="1" source="SmQ9b6Evit55e1KI1vsO-7" target="SmQ9b6Evit55e1KI1vsO-3">
          <mxGeometry relative="1" as="geometry" />
        </mxCell>
        <mxCell id="SmQ9b6Evit55e1KI1vsO-7" value="PC" style="ellipse;whiteSpace=wrap;html=1;labelBackgroundColor=none;fontSize=16;fillColor=#f8cecc;strokeColor=#b85450;" vertex="1" parent="1">
          <mxGeometry x="610" y="130" width="90" height="50" as="geometry" />
        </mxCell>
        <mxCell id="SmQ9b6Evit55e1KI1vsO-8" value="网关层" style="text;html=1;strokeColor=none;fillColor=none;align=center;verticalAlign=middle;whiteSpace=wrap;rounded=0;labelBackgroundColor=none;fontSize=16;" vertex="1" parent="1">
          <mxGeometry x="-40" y="320" width="60" height="30" as="geometry" />
        </mxCell>
        <mxCell id="SmQ9b6Evit55e1KI1vsO-26" style="edgeStyle=orthogonalEdgeStyle;curved=1;rounded=0;orthogonalLoop=1;jettySize=auto;html=1;entryX=0.5;entryY=0;entryDx=0;entryDy=0;fontSize=16;exitX=0.5;exitY=1;exitDx=0;exitDy=0;" edge="1" parent="1" source="SmQ9b6Evit55e1KI1vsO-4" target="SmQ9b6Evit55e1KI1vsO-19">
          <mxGeometry relative="1" as="geometry">
            <mxPoint x="250" y="320" as="sourcePoint" />
          </mxGeometry>
        </mxCell>
        <mxCell id="SmQ9b6Evit55e1KI1vsO-9" value="Nginx&lt;br&gt;172.26.122.213" style="text;html=1;strokeColor=none;fillColor=none;align=center;verticalAlign=middle;whiteSpace=wrap;rounded=0;labelBackgroundColor=none;fontSize=16;" vertex="1" parent="1">
          <mxGeometry x="195" y="265" width="110" height="40" as="geometry" />
        </mxCell>
        <mxCell id="SmQ9b6Evit55e1KI1vsO-33" style="edgeStyle=orthogonalEdgeStyle;curved=1;rounded=0;orthogonalLoop=1;jettySize=auto;html=1;entryX=0.75;entryY=0;entryDx=0;entryDy=0;fontSize=16;" edge="1" parent="1" source="SmQ9b6Evit55e1KI1vsO-10" target="SmQ9b6Evit55e1KI1vsO-19">
          <mxGeometry relative="1" as="geometry">
            <Array as="points">
              <mxPoint x="600" y="340" />
              <mxPoint x="220" y="340" />
            </Array>
          </mxGeometry>
        </mxCell>
        <mxCell id="SmQ9b6Evit55e1KI1vsO-34" style="edgeStyle=orthogonalEdgeStyle;curved=1;rounded=0;orthogonalLoop=1;jettySize=auto;html=1;exitX=0.5;exitY=1;exitDx=0;exitDy=0;fontSize=16;" edge="1" parent="1" source="SmQ9b6Evit55e1KI1vsO-10" target="SmQ9b6Evit55e1KI1vsO-21">
          <mxGeometry relative="1" as="geometry" />
        </mxCell>
        <mxCell id="SmQ9b6Evit55e1KI1vsO-35" style="edgeStyle=orthogonalEdgeStyle;curved=1;rounded=0;orthogonalLoop=1;jettySize=auto;html=1;entryX=0.75;entryY=0;entryDx=0;entryDy=0;fontSize=16;" edge="1" parent="1" source="SmQ9b6Evit55e1KI1vsO-10" target="SmQ9b6Evit55e1KI1vsO-22">
          <mxGeometry relative="1" as="geometry">
            <Array as="points">
              <mxPoint x="600" y="350" />
              <mxPoint x="650" y="350" />
            </Array>
          </mxGeometry>
        </mxCell>
        <mxCell id="SmQ9b6Evit55e1KI1vsO-10" value="" style="rounded=0;whiteSpace=wrap;html=1;labelBackgroundColor=none;fontSize=20;fillColor=#dae8fc;strokeColor=#6c8ebf;" vertex="1" parent="1">
          <mxGeometry x="540" y="255" width="120" height="65" as="geometry" />
        </mxCell>
        <mxCell id="SmQ9b6Evit55e1KI1vsO-12" value="Nginx&lt;br&gt;172.26.122.213" style="text;html=1;strokeColor=none;fillColor=none;align=center;verticalAlign=middle;whiteSpace=wrap;rounded=0;labelBackgroundColor=none;fontSize=16;" vertex="1" parent="1">
          <mxGeometry x="545" y="265" width="110" height="40" as="geometry" />
        </mxCell>
        <mxCell id="SmQ9b6Evit55e1KI1vsO-19" value="" style="rounded=0;whiteSpace=wrap;html=1;labelBackgroundColor=#FFFFFF;fontSize=16;fillColor=#d5e8d4;strokeColor=#82b366;" vertex="1" parent="1">
          <mxGeometry x="130" y="380" width="120" height="60" as="geometry" />
        </mxCell>
        <mxCell id="SmQ9b6Evit55e1KI1vsO-21" value="" style="rounded=0;whiteSpace=wrap;html=1;labelBackgroundColor=#FFFFFF;fontSize=16;fillColor=#d5e8d4;strokeColor=#82b366;" vertex="1" parent="1">
          <mxGeometry x="350" y="380" width="120" height="60" as="geometry" />
        </mxCell>
        <mxCell id="SmQ9b6Evit55e1KI1vsO-22" value="" style="rounded=0;whiteSpace=wrap;html=1;labelBackgroundColor=#FFFFFF;fontSize=16;fillColor=#d5e8d4;strokeColor=#82b366;" vertex="1" parent="1">
          <mxGeometry x="560" y="380" width="120" height="60" as="geometry" />
        </mxCell>
        <mxCell id="SmQ9b6Evit55e1KI1vsO-30" value="Gateway&lt;br&gt;172.26.122.217" style="text;html=1;strokeColor=none;fillColor=none;align=center;verticalAlign=middle;whiteSpace=wrap;rounded=0;labelBackgroundColor=none;fontSize=16;" vertex="1" parent="1">
          <mxGeometry x="135" y="390" width="110" height="40" as="geometry" />
        </mxCell>
        <mxCell id="SmQ9b6Evit55e1KI1vsO-31" value="Gateway&lt;br&gt;172.26.122.218" style="text;html=1;strokeColor=none;fillColor=none;align=center;verticalAlign=middle;whiteSpace=wrap;rounded=0;labelBackgroundColor=none;fontSize=16;" vertex="1" parent="1">
          <mxGeometry x="355" y="390" width="110" height="40" as="geometry" />
        </mxCell>
        <mxCell id="SmQ9b6Evit55e1KI1vsO-32" value="Gateway&lt;br&gt;172.26.122.219" style="text;html=1;strokeColor=none;fillColor=none;align=center;verticalAlign=middle;whiteSpace=wrap;rounded=0;labelBackgroundColor=none;fontSize=16;" vertex="1" parent="1">
          <mxGeometry x="565" y="390" width="110" height="40" as="geometry" />
        </mxCell>
        <mxCell id="SmQ9b6Evit55e1KI1vsO-36" value="客户端" style="text;html=1;align=center;verticalAlign=middle;resizable=0;points=[];autosize=1;strokeColor=none;fillColor=none;fontSize=16;" vertex="1" parent="1">
          <mxGeometry x="-40" y="145" width="60" height="20" as="geometry" />
        </mxCell>
        <mxCell id="SmQ9b6Evit55e1KI1vsO-37" value="服务层" style="text;html=1;align=center;verticalAlign=middle;resizable=0;points=[];autosize=1;strokeColor=none;fillColor=none;fontSize=16;" vertex="1" parent="1">
          <mxGeometry x="-40" y="680" width="60" height="20" as="geometry" />
        </mxCell>
      </root>
    </mxGraphModel>
  </diagram>
</mxfile>
